<svg width="41" height="22" viewBox="0 0 41 22" fill="none" xmlns="http://www.w3.org/2000/svg">
<path d="M29.0632 2.65791L35.6842 9.27886H1.55696C0.697081 9.27886 0 9.97576 0 10.8358C0 11.6957 0.697081 12.3928 1.55696 12.3928H35.6842L29.0632 19.0136C28.4553 19.6216 28.4553 20.6075 29.0632 21.2155C29.6712 21.8236 30.6571 21.8236 31.2651 21.2155L40.544 11.9367C41.152 11.3287 41.152 10.3428 40.544 9.73474L31.2651 0.456037C30.885 0.0760149 30.3575 -0.0664992 29.8668 0.028496C29.5724 0.0855015 29.2913 0.228016 29.0632 0.456037C29.0538 0.465524 29.0445 0.475115 29.0351 0.484809C28.4553 1.09476 28.4647 2.05937 29.0632 2.65791Z" fill="#B02000"/>
</svg>
